<svg width="1200" height="800" viewBox="0 0 1200 800" fill="none" xmlns="http://www.w3.org/2000/svg">
  <defs>
    <linearGradient id="bg" x1="0" y1="0" x2="1200" y2="800" gradientUnits="userSpaceOnUse">
      <stop stop-color="#080B12" />
      <stop offset="1" stop-color="#0D1420" />
    </linearGradient>
    <linearGradient id="coast" x1="200" y1="200" x2="1000" y2="700" gradientUnits="userSpaceOnUse">
      <stop stop-color="#74F0DA" stop-opacity="0.85" />
      <stop offset="1" stop-color="#7AA8FF" stop-opacity="0.75" />
    </linearGradient>
    <pattern id="grid" width="90" height="90" patternUnits="userSpaceOnUse">
      <path d="M0 0H90M0 0V90" stroke="#FFFFFF" stroke-opacity="0.04" stroke-width="1" />
    </pattern>
    <filter id="glow" x="-50%" y="-50%" width="200%" height="200%" color-interpolation-filters="sRGB">
      <feGaussianBlur stdDeviation="10" result="blur" />
      <feColorMatrix
        in="blur"
        type="matrix"
        values="0 0 0 0 0.45  0 0 0 0 0.95  0 0 0 0 0.85  0 0 0 0.45 0"
      />
      <feBlend in="SourceGraphic" mode="screen" />
    </filter>
  </defs>

  <rect width="1200" height="800" fill="url(#bg)" />
  <rect width="1200" height="800" fill="url(#grid)" />

  <g opacity="0.6" filter="url(#glow)">
    <path
      d="M170 510C200 430 300 370 395 395C470 415 520 480 505 555C488 635 402 670 300 655C210 640 150 585 170 510Z"
      fill="#101A2B"
      stroke="url(#coast)"
      stroke-width="2.2"
    />
    <path
      d="M520 270C600 210 735 190 870 230C990 265 1070 350 1060 450C1050 570 940 640 805 625C680 610 580 545 540 455C510 400 495 320 520 270Z"
      fill="#101A2B"
      stroke="url(#coast)"
      stroke-width="2.2"
    />
    <path
      d="M705 560C770 515 860 515 930 555C990 590 990 660 930 705C855 760 750 735 705 670C675 630 675 590 705 560Z"
      fill="#101A2B"
      stroke="url(#coast)"
      stroke-width="2.2"
    />
    <path
      d="M430 590C455 560 500 545 540 555C580 565 605 600 600 640C594 690 545 715 495 705C450 695 415 655 420 610C422 600 426 595 430 590Z"
      fill="#101A2B"
      stroke="url(#coast)"
      stroke-width="2"
      opacity="0.85"
    />
  </g>

  <g opacity="0.35" stroke="#7AA8FF" stroke-width="1.2">
    <path d="M210 470C310 420 425 440 520 470" />
    <path d="M560 300C700 250 870 260 990 320" />
    <path d="M600 430C720 400 860 420 975 480" />
    <path d="M705 605C780 585 855 600 920 640" />
  </g>

  <g opacity="0.55" fill="#74F0DA">
    <circle cx="585" cy="360" r="6" />
    <circle cx="640" cy="520" r="4" />
    <circle cx="870" cy="610" r="5" />
    <circle cx="340" cy="560" r="4" />
  </g>

  <g>
    <circle cx="820" cy="565" r="10" fill="#F2F5F9" />
    <circle cx="820" cy="565" r="22" fill="#74F0DA" fill-opacity="0.2" />
  </g>
</svg>
