<svg width="1200" height="700" viewBox="0 0 1200 700" fill="none" xmlns="http://www.w3.org/2000/svg">
  <rect width="1200" height="700" fill="#0B0F16"/>
  <g opacity="0.35" fill="#74F0DA">
    <path d="M130 210l120-40 90 20 40 60-30 70-140 20-80-30-20-60z"/>
    <path d="M380 260l70-20 80 30 30 60-40 70-90 10-60-50 10-100z"/>
    <path d="M640 220l140-40 120 40 50 70-40 90-160 20-120-50-20-80 30-50z"/>
    <path d="M760 420l80-20 70 30 20 60-40 70-90 10-50-40 10-110z"/>
    <path d="M260 430l90-20 70 30 10 60-40 60-90 10-60-40 20-100z"/>
    <path d="M980 260l90-20 50 40-20 60-90 30-50-40 20-70z"/>
  </g>
  <g opacity="0.25" stroke="#7AA8FF" stroke-width="1">
    <ellipse cx="600" cy="360" rx="520" ry="260"/>
    <ellipse cx="600" cy="360" rx="420" ry="210"/>
  </g>
  <circle cx="780" cy="360" r="10" fill="#F2F5F9"/>
  <circle cx="780" cy="360" r="18" fill="rgba(116,240,218,0.35)"/>
</svg>
