<svg width="240" height="240" viewBox="0 0 240 240" fill="none" xmlns="http://www.w3.org/2000/svg">
  <rect width="240" height="240" fill="#0B0F16" />
  <rect x="12" y="12" width="216" height="216" stroke="#141C2B" stroke-width="2" />
  <rect x="24" y="24" width="56" height="56" fill="#F2F5F9" />
  <rect x="32" y="32" width="40" height="40" fill="#0B0F16" />
  <rect x="40" y="40" width="24" height="24" fill="#F2F5F9" />

  <rect x="160" y="24" width="56" height="56" fill="#F2F5F9" />
  <rect x="168" y="32" width="40" height="40" fill="#0B0F16" />
  <rect x="176" y="40" width="24" height="24" fill="#F2F5F9" />

  <rect x="24" y="160" width="56" height="56" fill="#F2F5F9" />
  <rect x="32" y="168" width="40" height="40" fill="#0B0F16" />
  <rect x="40" y="176" width="24" height="24" fill="#F2F5F9" />

  <rect x="104" y="104" width="16" height="16" fill="#F2F5F9" />
  <rect x="128" y="104" width="8" height="8" fill="#F2F5F9" />
  <rect x="144" y="104" width="16" height="16" fill="#F2F5F9" />
  <rect x="104" y="128" width="8" height="8" fill="#F2F5F9" />
  <rect x="120" y="128" width="16" height="16" fill="#F2F5F9" />
  <rect x="144" y="128" width="8" height="8" fill="#F2F5F9" />
  <rect x="160" y="128" width="16" height="16" fill="#F2F5F9" />
  <rect x="104" y="152" width="16" height="16" fill="#F2F5F9" />
  <rect x="128" y="152" width="8" height="8" fill="#F2F5F9" />
  <rect x="144" y="152" width="16" height="16" fill="#F2F5F9" />

  <rect x="88" y="184" width="120" height="28" fill="#0B0F16" />
  <text x="148" y="203" text-anchor="middle" fill="#7B889A" font-size="10" font-family="Arial, sans-serif">WECHAT QR</text>
</svg>
